AdventPro-reg_wd_it.ufo
<glyph name="dollar" format="1">
  <advance width="766" height="962"/>
  <unicode hex="0024"/>
  <outline>
    <component base="S" xOffset="2.2176"/>
    <contour>
      <point x="346" y="-114" type="line"/>
      <point x="544" y="818" type="line"/>
      <point x="602" y="818" type="line"/>
      <point x="404" y="-114" type="line"/>
    </contour>
  </outline>
</glyph>
<glyph name="percent" format="1">
  <advance width="1070" height="962"/>
  <unicode hex="0025"/>
  <outline>
    <contour>
      <point x="72" y="0" type="line"/>
      <point x="1030" y="700" type="line"/>
      <point x="1126" y="700" type="line"/>
      <point x="174" y="0" type="line"/>
    </contour>
    <contour>
      <point x="416" y="714" type="curve" smooth="yes"/>
      <point x="536" y="714"/>
      <point x="620" y="650"/>
      <point x="603" y="568" type="curve" smooth="yes"/>
      <point x="586" y="488"/>
      <point x="474" y="422"/>
      <point x="354" y="422" type="curve" smooth="yes"/>
      <point x="233" y="422"/>
      <point x="148" y="488"/>
      <point x="165" y="568" type="curve" smooth="yes"/>
      <point x="182" y="650"/>
      <point x="295" y="714"/>
    </contour>
    <contour>
      <point x="405" y="663" type="curve" smooth="yes"/>
      <point x="327" y="663"/>
      <point x="252" y="619"/>
      <point x="241" y="568" type="curve" smooth="yes"/>
      <point x="230" y="518"/>
      <point x="287" y="474"/>
      <point x="365" y="474" type="curve" smooth="yes"/>
      <point x="442" y="474"/>
      <point x="515" y="518"/>
      <point x="526" y="568" type="curve" smooth="yes"/>
      <point x="537" y="619"/>
      <point x="482" y="663"/>
    </contour>
    <contour>
      <point x="863" y="277" type="curve" smooth="yes"/>
      <point x="985" y="277"/>
      <point x="1067" y="212"/>
      <point x="1050" y="132" type="curve" smooth="yes"/>
      <point x="1033" y="51"/>
      <point x="923" y="-14"/>
      <point x="801" y="-14" type="curve" smooth="yes"/>
      <point x="683" y="-14"/>
      <point x="598" y="51"/>
      <point x="615" y="132" type="curve" smooth="yes"/>
      <point x="632" y="212"/>
      <point x="745" y="277"/>
    </contour>
    <contour>
      <point x="852" y="227" type="curve" smooth="yes"/>
      <point x="776" y="227"/>
      <point x="703" y="186"/>
      <point x="691" y="132" type="curve" smooth="yes"/>
      <point x="680" y="79"/>
      <point x="736" y="37"/>
      <point x="812" y="37" type="curve" smooth="yes"/>
      <point x="893" y="37"/>
      <point x="964" y="79"/>
      <point x="975" y="132" type="curve" smooth="yes"/>
      <point x="987" y="186"/>
      <point x="933" y="227"/>
    </contour>
  </outline>
</glyph>
<glyph name="parenleft" format="1">
  <advance width="273" height="962"/>
  <unicode hex="0028"/>
  <outline>
    <contour>
      <point x="414" y="780" type="line"/>
      <point x="338" y="748"/>
      <point x="295" y="698"/>
      <point x="282" y="637" type="curve" smooth="yes"/>
      <point x="241" y="444"/>
      <point x="201" y="255"/>
      <point x="160" y="62" type="curve" smooth="yes"/>
      <point x="147" y="-1"/>
      <point x="169" y="-49"/>
      <point x="231" y="-81" type="curve"/>
      <point x="195" y="-120" type="line"/>
      <point x="127" y="-82"/>
      <point x="50" y="-58"/>
      <point x="77" y="70" type="curve" smooth="yes"/>
      <point x="195" y="627" type="line" smooth="yes"/>
      <point x="217" y="728"/>
      <point x="280" y="779"/>
      <point x="395" y="818" type="curve"/>
    </contour>
  </outline>
</glyph>
<glyph name="parenright" format="1">
  <advance width="275" height="962"/>
  <unicode hex="0029"/>
  <outline>
    <contour>
      <point x="228" y="818" type="line"/>
      <point x="327" y="779"/>
      <point x="367" y="728"/>
      <point x="345" y="627" type="curve" smooth="yes"/>
      <point x="227" y="70" type="line" smooth="yes"/>
      <point x="200" y="-58"/>
      <point x="114" y="-82"/>
      <point x="28" y="-120" type="curve"/>
      <point x="9" y="-81" type="line"/>
      <point x="85" y="-49"/>
      <point x="126" y="-1"/>
      <point x="139" y="62" type="curve" smooth="yes"/>
      <point x="180" y="255"/>
      <point x="220" y="444"/>
      <point x="261" y="637" type="curve" smooth="yes"/>
      <point x="274" y="698"/>
      <point x="254" y="748"/>
      <point x="192" y="780" type="curve"/>
    </contour>
  </outline>
</glyph>
<glyph name="one" format="1">
  <advance width="300" height="962"/>
  <unicode hex="0031"/>
  <outline>
    <contour>
      <point x="140" y="622" type="line"/>
      <point x="137" y="622"/>
      <point x="271" y="644"/>
      <point x="349" y="700" type="curve"/>
      <point x="407" y="700" type="line"/>
      <point x="258" y="0" type="line"/>
      <point x="201" y="0" type="line"/>
      <point x="336" y="636" type="line"/>
      <point x="296" y="616"/>
      <point x="196" y="589"/>
      <point x="144" y="583" type="curve"/>
    </contour>
  </outline>
</glyph>
<glyph name="five" format="1">
  <advance width="632" height="962"/>
  <unicode hex="0035"/>
  <outline>
    <contour>
      <point x="226" y="412" type="line"/>
      <point x="367" y="412" type="line" smooth="yes"/>
      <point x="585" y="412"/>
      <point x="677" y="345"/>
      <point x="646" y="199" type="curve" smooth="yes"/>
      <point x="625" y="97"/>
      <point x="505" y="-12"/>
      <point x="284" y="-12" type="curve" smooth="yes"/>
      <point x="139" y="-12"/>
      <point x="35" y="44"/>
      <point x="35" y="42" type="curve"/>
      <point x="67" y="89" type="line"/>
      <point x="67" y="91"/>
      <point x="161" y="44"/>
      <point x="292" y="44" type="curve" smooth="yes"/>
      <point x="442" y="44"/>
      <point x="566" y="106"/>
      <point x="586" y="201" type="curve" smooth="yes"/>
      <point x="604" y="289"/>
      <point x="557" y="356"/>
      <point x="355" y="356" type="curve" smooth="yes"/>
      <point x="141" y="356" type="line"/>
      <point x="271" y="700" type="line"/>
      <point x="669" y="700" type="line"/>
      <point x="657" y="643" type="line"/>
      <point x="311" y="643" type="line"/>
    </contour>
  </outline>
</glyph>
<glyph name="T" format="1">
  <advance width="618" height="962"/>
  <unicode hex="0054"/>
  <outline>
    <contour>
      <point x="471" y="650" type="line"/>
      <point x="333" y="0" type="line"/>
      <point x="276" y="0" type="line"/>
      <point x="414" y="650" type="line"/>
      <point x="144" y="650" type="line"/>
      <point x="155" y="700" type="line"/>
      <point x="758" y="700" type="line"/>
      <point x="747" y="650" type="line"/>
    </contour>
  </outline>
</glyph>
<glyph name="V" format="1">
  <advance width="749" height="962"/>
  <unicode hex="0056"/>
  <outline>
    <contour>
      <point x="162" y="700" type="line"/>
      <point x="222" y="700" type="line"/>
      <point x="385" y="67" type="line"/>
      <point x="820" y="700" type="line"/>
      <point x="879" y="700" type="line"/>
      <point x="400" y="0" type="line"/>
      <point x="344" y="0" type="line"/>
    </contour>
  </outline>
</glyph>
<glyph name="W" format="1">
  <advance width="1078" height="962"/>
  <unicode hex="0057"/>
  <outline>
    <contour>
      <point x="727" y="700" type="line"/>
      <point x="789" y="62" type="line"/>
      <point x="1148" y="700" type="line"/>
      <point x="1208" y="700" type="line"/>
      <point x="815" y="0" type="line"/>
      <point x="736" y="0" type="line"/>
      <point x="672" y="623" type="line"/>
      <point x="342" y="0" type="line"/>
      <point x="263" y="0" type="line"/>
      <point x="164" y="700" type="line"/>
      <point x="225" y="700" type="line"/>
      <point x="315" y="62" type="line"/>
      <point x="648" y="700" type="line"/>
    </contour>
  </outline>
</glyph>
<glyph name="X" format="1">
  <advance width="808" height="962"/>
  <unicode hex="0058"/>
  <outline>
    <contour>
      <point x="491" y="406" type="line"/>
      <point x="829" y="700" type="line"/>
      <point x="906" y="700" type="line"/>
      <point x="520" y="364" type="line"/>
      <point x="783" y="0" type="line"/>
      <point x="703" y="0" type="line"/>
      <point x="473" y="322" type="line"/>
      <point x="103" y="0" type="line"/>
      <point x="25" y="0" type="line"/>
      <point x="442" y="364" type="line"/>
      <point x="201" y="700" type="line"/>
      <point x="277" y="700" type="line"/>
    </contour>
  </outline>
</glyph>
<glyph name="Z" format="1">
  <advance width="783" height="962"/>
  <unicode hex="005A"/>
  <outline>
    <contour>
      <point x="894" y="700" type="line"/>
      <point x="883" y="650" type="line"/>
      <point x="116" y="51" type="line"/>
      <point x="763" y="51" type="line"/>
      <point x="752" y="0" type="line"/>
      <point x="22" y="0" type="line"/>
      <point x="33" y="50" type="line"/>
      <point x="796" y="649" type="line"/>
      <point x="178" y="649" type="line"/>
      <point x="189" y="700" type="line"/>
    </contour>
  </outline>
</glyph>
<glyph name="d" format="1">
  <advance width="652" height="962"/>
  <unicode hex="0064"/>
  <outline>
    <contour>
      <point x="606" y="0" type="line"/>
      <point x="609" y="0"/>
      <point x="439" y="-9"/>
      <point x="370" y="-10" type="curve" smooth="yes"/>
      <point x="176" y="-14"/>
      <point x="28" y="1"/>
      <point x="62" y="159" type="curve" smooth="yes"/>
      <point x="104" y="359" type="line" smooth="yes"/>
      <point x="129" y="475"/>
      <point x="269" y="510"/>
      <point x="387" y="510" type="curve" smooth="yes"/>
      <point x="485" y="510"/>
      <point x="585" y="493"/>
      <point x="649" y="473" type="curve"/>
      <point x="697" y="700" type="line"/>
      <point x="755" y="700" type="line"/>
    </contour>
    <contour>
      <point x="638" y="423" type="line"/>
      <point x="563" y="446"/>
      <point x="467" y="463"/>
      <point x="371" y="463" type="curve" smooth="yes"/>
      <point x="320" y="463"/>
      <point x="179" y="452"/>
      <point x="158" y="355" type="curve" smooth="yes"/>
      <point x="118" y="166" type="line" smooth="yes"/>
      <point x="96" y="60"/>
      <point x="172" y="34"/>
      <point x="373" y="38" type="curve" smooth="yes"/>
      <point x="470" y="40"/>
      <point x="558" y="47"/>
      <point x="558" y="46" type="curve"/>
    </contour>
  </outline>
</glyph>
<glyph name="r" format="1">
  <advance width="467" height="962"/>
  <unicode hex="0072"/>
  <outline>
    <contour>
      <point x="540" y="461" type="line"/>
      <point x="540" y="461"/>
      <point x="508" y="463"/>
      <point x="475" y="462" type="curve" smooth="yes"/>
      <point x="391" y="460"/>
      <point x="242" y="436"/>
      <point x="183" y="413" type="curve"/>
      <point x="95" y="0" type="line"/>
      <point x="38" y="0" type="line"/>
      <point x="144" y="501" type="line"/>
      <point x="201" y="501" type="line"/>
      <point x="194" y="468" type="line"/>
      <point x="272" y="490"/>
      <point x="379" y="508"/>
      <point x="488" y="512" type="curve" smooth="yes"/>
      <point x="524" y="513"/>
      <point x="554" y="509"/>
      <point x="554" y="509" type="curve"/>
    </contour>
  </outline>
</glyph>
<glyph name="u" format="1">
  <advance width="630" height="962"/>
  <unicode hex="0075"/>
  <outline>
    <contour>
      <point x="548" y="64" type="line"/>
      <point x="482" y="7"/>
      <point x="369" y="-10"/>
      <point x="294" y="-10" type="curve" smooth="yes"/>
      <point x="128" y="-10"/>
      <point x="43" y="43"/>
      <point x="67" y="157" type="curve" smooth="yes"/>
      <point x="140" y="501" type="line"/>
      <point x="196" y="501" type="line"/>
      <point x="126" y="171" type="line" smooth="yes"/>
      <point x="105" y="69"/>
      <point x="194" y="44"/>
      <point x="308" y="44" type="curve" smooth="yes"/>
      <point x="428" y="44"/>
      <point x="556" y="102"/>
      <point x="571" y="173" type="curve" smooth="yes"/>
      <point x="640" y="501" type="line"/>
      <point x="697" y="501" type="line"/>
      <point x="591" y="0" type="line"/>
      <point x="534" y="0" type="line"/>
    </contour>
  </outline>
</glyph>
<glyph name="x" format="1">
  <advance width="642" height="962"/>
  <unicode hex="0078"/>
  <outline>
    <contour>
      <point x="386" y="288" type="line"/>
      <point x="640" y="500" type="line"/>
      <point x="718" y="500" type="line"/>
      <point x="417" y="249" type="line"/>
      <point x="608" y="0" type="line"/>
      <point x="527" y="0" type="line"/>
      <point x="369" y="207" type="line"/>
      <point x="119" y="0" type="line"/>
      <point x="39" y="0" type="line"/>
      <point x="338" y="249" type="line"/>
      <point x="142" y="500" type="line"/>
      <point x="223" y="500" type="line"/>
    </contour>
  </outline>
</glyph>
<glyph name="z" format="1">
  <advance width="596" height="962"/>
  <unicode hex="007A"/>
  <outline>
    <contour>
      <point x="652" y="501" type="line"/>
      <point x="642" y="452" type="line"/>
      <point x="121" y="51" type="line"/>
      <point x="579" y="51" type="line"/>
      <point x="568" y="0" type="line"/>
      <point x="26" y="0" type="line"/>
      <point x="37" y="50" type="line"/>
      <point x="555" y="451" type="line"/>
      <point x="135" y="451" type="line"/>
      <point x="145" y="501" type="line"/>
    </contour>
  </outline>
</glyph>
<glyph name="asciitilde" format="1">
  <advance width="267" height="962"/>
  <unicode hex="007E"/>
  <outline>
    <contour>
      <point x="354" y="306" type="line"/>
      <point x="316" y="273"/>
      <point x="286" y="262"/>
      <point x="261" y="263" type="curve" smooth="yes"/>
      <point x="214" y="264"/>
      <point x="178" y="297"/>
      <point x="133" y="299" type="curve"/>
      <point x="112" y="301"/>
      <point x="89" y="295"/>
      <point x="60" y="272" type="curve"/>
      <point x="46" y="313" type="line"/>
      <point x="82" y="344"/>
      <point x="111" y="354"/>
      <point x="136" y="354" type="curve" smooth="yes"/>
      <point x="187" y="354"/>
      <point x="224" y="317"/>
      <point x="271" y="318" type="curve" smooth="yes"/>
      <point x="296" y="319"/>
      <point x="318" y="330"/>
      <point x="338" y="347" type="curve"/>
    </contour>
  </outline>
</glyph>
<glyph name="exclamdown" format="1">
  <advance width="148" height="962"/>
  <unicode hex="00A1"/>
  <outline>
    <contour>
      <point x="115" y="36" type="line"/>
      <point x="110" y="12"/>
      <point x="96" y="0"/>
      <point x="73" y="0" type="curve" smooth="yes"/>
      <point x="52" y="0"/>
      <point x="43" y="12"/>
      <point x="48" y="37" type="curve"/>
      <point x="175" y="590" type="line"/>
      <point x="223" y="590" type="line"/>
    </contour>
    <contour>
      <point x="251" y="676" type="curve" smooth="yes"/>
      <point x="247" y="659"/>
      <point x="229" y="643"/>
      <point x="210" y="643" type="curve" smooth="yes"/>
      <point x="192" y="643"/>
      <point x="179" y="659"/>
      <point x="183" y="676" type="curve" smooth="yes"/>
      <point x="187" y="695"/>
      <point x="206" y="709"/>
      <point x="224" y="709" type="curve" smooth="yes"/>
      <point x="243" y="709"/>
      <point x="255" y="695"/>
    </contour>
  </outline>
</glyph>
<glyph name="sterling" format="1">
  <advance width="610" height="962"/>
  <unicode hex="00A3"/>
  <outline>
    <contour>
      <point x="175" y="53" type="line" smooth="yes"/>
      <point x="301" y="53"/>
      <point x="450" y="90"/>
      <point x="470" y="182" type="curve" smooth="yes"/>
      <point x="479" y="226"/>
      <point x="454" y="259"/>
      <point x="420" y="292" type="curve" smooth="yes"/>
      <point x="369" y="340" type="line"/>
      <point x="106" y="340" type="line"/>
      <point x="118" y="397" type="line"/>
      <point x="300" y="397" type="line"/>
      <point x="275" y="420" type="line" smooth="yes"/>
      <point x="223" y="468"/>
      <point x="187" y="508"/>
      <point x="200" y="571" type="curve" smooth="yes"/>
      <point x="219" y="657"/>
      <point x="330" y="708"/>
      <point x="463" y="708" type="curve" smooth="yes"/>
      <point x="534" y="708"/>
      <point x="607" y="695"/>
      <point x="668" y="671" type="curve"/>
      <point x="631" y="622" type="line"/>
      <point x="576" y="648"/>
      <point x="504" y="657"/>
      <point x="442" y="656" type="curve" smooth="yes"/>
      <point x="354" y="655"/>
      <point x="275" y="626"/>
      <point x="262" y="571" type="curve" smooth="yes"/>
      <point x="250" y="518"/>
      <point x="299" y="486"/>
      <point x="333" y="455" type="curve" smooth="yes"/>
      <point x="395" y="397" type="line"/>
      <point x="657" y="397" type="line"/>
      <point x="645" y="340" type="line"/>
      <point x="461" y="340" type="line"/>
      <point x="476" y="325" type="line" smooth="yes"/>
      <point x="517" y="283"/>
      <point x="546" y="237"/>
      <point x="534" y="181" type="curve" smooth="yes"/>
      <point x="524" y="130"/>
      <point x="473" y="80"/>
      <point x="401" y="53" type="curve"/>
      <point x="584" y="53" type="line"/>
      <point x="573" y="0" type="line"/>
      <point x="34" y="0" type="line"/>
      <point x="45" y="53" type="line"/>
    </contour>
  </outline>
</glyph>
<glyph name="paragraph" format="1">
  <advance width="885" height="962"/>
  <unicode hex="00B6"/>
  <outline>
    <contour>
      <point x="370" y="247" type="line" smooth="yes"/>
      <point x="166" y="247"/>
      <point x="95" y="310"/>
      <point x="130" y="476" type="curve" smooth="yes"/>
      <point x="167" y="647"/>
      <point x="268" y="702"/>
      <point x="466" y="702" type="curve" smooth="yes"/>
      <point x="992" y="702" type="line"/>
      <point x="843" y="1" type="line"/>
      <point x="790" y="1" type="line"/>
      <point x="928" y="649" type="line"/>
      <point x="818" y="649" type="line"/>
      <point x="680" y="1" type="line"/>
      <point x="627" y="1" type="line"/>
      <point x="680" y="247" type="line"/>
    </contour>
    <contour>
      <point x="439" y="649" type="line" smooth="yes"/>
      <point x="312" y="649"/>
      <point x="215" y="617"/>
      <point x="185" y="476" type="curve" smooth="yes"/>
      <point x="153" y="323"/>
      <point x="251" y="301"/>
      <point x="375" y="301" type="curve" smooth="yes"/>
      <point x="691" y="301" type="line"/>
      <point x="765" y="649" type="line"/>
    </contour>
  </outline>
</glyph>
<glyph name="germandbls" format="1">
  <advance width="668" height="962"/>
  <unicode hex="00DF"/>
  <outline>
    <contour>
      <point x="96" y="0" type="line"/>
      <point x="39" y="0" type="line"/>
      <point x="155" y="545" type="line" smooth="yes"/>
      <point x="179" y="658"/>
      <point x="253" y="701"/>
      <point x="383" y="700" type="curve" smooth="yes"/>
      <point x="518" y="699"/>
      <point x="575" y="643"/>
      <point x="559" y="569" type="curve" smooth="yes"/>
      <point x="551" y="532"/>
      <point x="530" y="499"/>
      <point x="485" y="477" type="curve"/>
      <point x="488" y="477"/>
      <point x="438" y="477"/>
      <point x="440" y="477" type="curve"/>
      <point x="426" y="465"/>
      <point x="420" y="453"/>
      <point x="420" y="440" type="curve" smooth="yes"/>
      <point x="418" y="365"/>
      <point x="704" y="304"/>
      <point x="671" y="149" type="curve" smooth="yes"/>
      <point x="647" y="37"/>
      <point x="527" y="-7"/>
      <point x="403" y="-11" type="curve" smooth="yes"/>
      <point x="321" y="-13"/>
      <point x="242" y="4"/>
      <point x="189" y="36" type="curve"/>
      <point x="224" y="79" type="line"/>
      <point x="269" y="52"/>
      <point x="339" y="42"/>
      <point x="400" y="42" type="curve" smooth="yes"/>
      <point x="484" y="42"/>
      <point x="597" y="72"/>
      <point x="614" y="149" type="curve" smooth="yes"/>
      <point x="639" y="268"/>
      <point x="353" y="324"/>
      <point x="361" y="434" type="curve" smooth="yes"/>
      <point x="363" y="457"/>
      <point x="374" y="482"/>
      <point x="402" y="508" type="curve"/>
      <point x="470" y="508"/>
      <point x="494" y="537"/>
      <point x="502" y="574" type="curve" smooth="yes"/>
      <point x="512" y="620"/>
      <point x="441" y="647"/>
      <point x="378" y="647" type="curve" smooth="yes"/>
      <point x="294" y="647"/>
      <point x="230" y="631"/>
      <point x="213" y="551" type="curve" smooth="yes"/>
    </contour>
  </outline>
</glyph>
<glyph name="eth" format="1">
  <advance width="608" height="962"/>
  <unicode hex="00F0"/>
  <outline>
    <contour>
      <point x="397" y="670" type="curve"/>
      <point x="416" y="701" type="line"/>
      <point x="513" y="693"/>
      <point x="585" y="667"/>
      <point x="631" y="624" type="curve" smooth="yes"/>
      <point x="676" y="582"/>
      <point x="692" y="531"/>
      <point x="677" y="461" type="curve" smooth="yes"/>
      <point x="617" y="178" type="line" smooth="yes"/>
      <point x="588" y="41"/>
      <point x="477" y="-9"/>
      <point x="298" y="-9" type="curve" smooth="yes"/>
      <point x="120" y="-9"/>
      <point x="34" y="46"/>
      <point x="62" y="178" type="curve" smooth="yes"/>
      <point x="77" y="250" type="line" smooth="yes"/>
      <point x="105" y="381"/>
      <point x="204" y="434"/>
      <point x="371" y="434" type="curve" smooth="yes"/>
      <point x="474" y="434"/>
      <point x="576" y="400"/>
      <point x="602" y="357" type="curve"/>
      <point x="625" y="464" type="line" smooth="yes"/>
      <point x="658" y="619"/>
      <point x="445" y="663"/>
    </contour>
    <contour>
      <point x="136" y="258" type="curve" smooth="yes"/>
      <point x="119" y="178" type="line" smooth="yes"/>
      <point x="96" y="70"/>
      <point x="179" y="43"/>
      <point x="305" y="43" type="curve" smooth="yes"/>
      <point x="437" y="43"/>
      <point x="541" y="70"/>
      <point x="564" y="178" type="curve" smooth="yes"/>
      <point x="579" y="249" type="line" smooth="yes"/>
      <point x="597" y="334"/>
      <point x="483" y="381"/>
      <point x="368" y="381" type="curve" smooth="yes"/>
      <point x="252" y="381"/>
      <point x="158" y="360"/>
    </contour>
    <contour>
      <point x="704" y="675" type="line"/>
      <point x="403" y="498" type="line"/>
      <point x="384" y="530" type="line"/>
      <point x="685" y="707" type="line"/>
    </contour>
  </outline>
</glyph>
<glyph name="gravecomb" format="1">
  <advance width="267" height="962"/>
  <unicode hex="0300"/>
  <outline>
    <contour>
      <point x="266" y="717" type="curve" smooth="yes"/>
      <point x="283" y="610" type="line"/>
      <point x="247" y="610" type="line"/>
      <point x="209" y="689" type="line" smooth="yes"/>
      <point x="202" y="705"/>
      <point x="207" y="728"/>
      <point x="226" y="737" type="curve" smooth="yes"/>
      <point x="247" y="748"/>
      <point x="263" y="736"/>
    </contour>
  </outline>
</glyph>
<glyph name="iotatonos" format="1">
  <advance width="135" height="962"/>
  <unicode hex="03AF"/>
  <outline>
    <component base="dotlessi"/>
    <contour>
      <point x="270" y="639" type="curve" smooth="yes"/>
      <point x="201" y="560" type="line"/>
      <point x="166" y="560" type="line"/>
      <point x="226" y="667" type="line" smooth="yes"/>
      <point x="236" y="686"/>
      <point x="258" y="696"/>
      <point x="273" y="686" type="curve" smooth="yes"/>
      <point x="289" y="676"/>
      <point x="285" y="655"/>
    </contour>
  </outline>
</glyph>
<glyph name="chi" format="1">
  <advance width="699" height="962"/>
  <unicode hex="03C7"/>
  <outline>
    <contour>
      <point x="514" y="-98" type="line" smooth="yes"/>
      <point x="540" y="-147"/>
      <point x="567" y="-167"/>
      <point x="661" y="-174" type="curve"/>
      <point x="631" y="-212" type="line"/>
      <point x="550" y="-212"/>
      <point x="486" y="-183"/>
      <point x="453" y="-118" type="curve" smooth="yes"/>
      <point x="341" y="99" type="line"/>
      <point x="29" y="-207" type="line"/>
      <point x="-17" y="-181" type="line"/>
      <point x="320" y="149" type="line"/>
      <point x="133" y="500" type="line"/>
      <point x="200" y="500" type="line"/>
      <point x="364" y="191" type="line"/>
      <point x="674" y="500" type="line"/>
      <point x="745" y="500" type="line"/>
      <point x="387" y="145" type="line"/>
    </contour>
  </outline>
</glyph>
<glyph name="uni0404" format="1">
  <advance width="605" height="962"/>
  <unicode hex="0404"/>
  <outline>
    <component base="C"/>
    <contour>
      <point x="164" y="357" type="line"/>
      <point x="176" y="412" type="line"/>
      <point x="476" y="412" type="line"/>
      <point x="447" y="357" type="line"/>
    </contour>
  </outline>
</glyph>
<glyph name="uni0418" format="1">
  <advance width="822" height="962"/>
  <unicode hex="0418"/>
  <outline>
    <contour>
      <point x="190" y="700" type="line"/>
      <point x="248" y="700" type="line"/>
      <point x="115" y="75" type="line"/>
      <point x="872" y="700" type="line"/>
      <point x="929" y="700" type="line"/>
      <point x="780" y="0" type="line"/>
      <point x="723" y="0" type="line"/>
      <point x="855" y="623" type="line"/>
      <point x="103" y="0" type="line"/>
      <point x="41" y="0" type="line"/>
    </contour>
  </outline>
</glyph>
<glyph name="uni0426" format="1">
  <advance width="773" height="962"/>
  <unicode hex="0426"/>
  <outline>
    <contour>
      <point x="700" y="57" type="line"/>
      <point x="757" y="57" type="line"/>
      <point x="723" y="-105" type="line"/>
      <point x="673" y="-105" type="line"/>
      <point x="692" y="0" type="line"/>
      <point x="41" y="0" type="line"/>
      <point x="190" y="700" type="line"/>
      <point x="244" y="700" type="line"/>
      <point x="107" y="57" type="line"/>
      <point x="644" y="57" type="line"/>
      <point x="781" y="700" type="line"/>
      <point x="837" y="700" type="line"/>
    </contour>
  </outline>
</glyph>
<glyph name="uni042D" format="1">
  <advance width="603" height="962"/>
  <unicode hex="042D"/>
  <outline>
    <contour>
      <point x="224" y="638" type="curve"/>
      <point x="216" y="677" type="line"/>
      <point x="284" y="699"/>
      <point x="367" y="710"/>
      <point x="445" y="710" type="curve" smooth="yes"/>
      <point x="620" y="710"/>
      <point x="718" y="660"/>
      <point x="686" y="510" type="curve" smooth="yes"/>
      <point x="617" y="184" type="line" smooth="yes"/>
      <point x="587" y="40"/>
      <point x="475" y="-10"/>
      <point x="276" y="-10" type="curve" smooth="yes"/>
      <point x="200" y="-10"/>
      <point x="119" y="1"/>
      <point x="40" y="23" type="curve"/>
      <point x="63" y="71" type="line"/>
      <point x="143" y="51"/>
      <point x="223" y="40"/>
      <point x="281" y="40" type="curve" smooth="yes"/>
      <point x="443" y="40"/>
      <point x="536" y="71"/>
      <point x="561" y="186" type="curve" smooth="yes"/>
      <point x="630" y="514" type="line" smooth="yes"/>
      <point x="655" y="629"/>
      <point x="564" y="660"/>
      <point x="407" y="660" type="curve" smooth="yes"/>
      <point x="355" y="660"/>
      <point x="282" y="653"/>
    </contour>
    <contour>
      <point x="620" y="412" type="line"/>
      <point x="608" y="357" type="line"/>
      <point x="320" y="357" type="line"/>
      <point x="312" y="412" type="line"/>
    </contour>
  </outline>
</glyph>
<glyph name="uni042E" format="1">
  <advance width="993" height="962"/>
  <unicode hex="042E"/>
  <outline>
    <component base="O" xOffset="294"/>
    <component base="I" xOffset="3"/>
    <contour>
      <point x="438" y="380" type="line"/>
      <point x="425" y="322" type="line"/>
      <point x="236" y="322" type="line"/>
      <point x="249" y="380" type="line"/>
    </contour>
  </outline>
</glyph>
<glyph name="uni042F" format="1">
  <advance width="736" height="962"/>
  <unicode hex="042F"/>
  <outline>
    <contour>
      <point x="494" y="700" type="curve" smooth="yes"/>
      <point x="848" y="700" type="line"/>
      <point x="699" y="0" type="line"/>
      <point x="641" y="0" type="line"/>
      <point x="693" y="245" type="line"/>
      <point x="380" y="245" type="line" smooth="yes"/>
      <point x="350" y="245"/>
      <point x="320" y="245"/>
      <point x="297" y="249" type="curve"/>
      <point x="107" y="0" type="line"/>
      <point x="41" y="0" type="line"/>
      <point x="241" y="264" type="line"/>
      <point x="155" y="296"/>
      <point x="124" y="363"/>
      <point x="148" y="474" type="curve" smooth="yes"/>
      <point x="183" y="640"/>
      <point x="304" y="700"/>
    </contour>
    <contour>
      <point x="392" y="300" type="curve" smooth="yes"/>
      <point x="705" y="300" type="line"/>
      <point x="779" y="647" type="line"/>
      <point x="476" y="647" type="line" smooth="yes"/>
      <point x="359" y="647"/>
      <point x="237" y="615"/>
      <point x="207" y="474" type="curve" smooth="yes"/>
      <point x="174" y="321"/>
      <point x="278" y="300"/>
    </contour>
  </outline>
</glyph>
<glyph name="uni0431" format="1">
  <advance width="615" height="962"/>
  <unicode hex="0431"/>
  <outline>
    <contour>
      <point x="437" y="512" type="curve" smooth="yes"/>
      <point x="603" y="512"/>
      <point x="679" y="447"/>
      <point x="653" y="324" type="curve" smooth="yes"/>
      <point x="622" y="179" type="line" smooth="yes"/>
      <point x="595" y="50"/>
      <point x="485" y="-8"/>
      <point x="305" y="-8" type="curve" smooth="yes"/>
      <point x="126" y="-8"/>
      <point x="38" y="45"/>
      <point x="66" y="179" type="curve" smooth="yes"/>
      <point x="129" y="473" type="line" smooth="yes"/>
      <point x="141" y="533"/>
      <point x="179" y="584"/>
      <point x="242" y="626" type="curve" smooth="yes"/>
      <point x="299" y="663"/>
      <point x="394" y="697"/>
      <point x="493" y="703" type="curve"/>
      <point x="493" y="673" type="line"/>
      <point x="397" y="660"/>
      <point x="315" y="625"/>
      <point x="273" y="597" type="curve" smooth="yes"/>
      <point x="233" y="571"/>
      <point x="196" y="535"/>
      <point x="183" y="473" type="curve" smooth="yes"/>
      <point x="174" y="431" type="line"/>
      <point x="224" y="481"/>
      <point x="344" y="512"/>
    </contour>
    <contour>
      <point x="418" y="459" type="curve" smooth="yes"/>
      <point x="303" y="459"/>
      <point x="170" y="412"/>
      <point x="152" y="327" type="curve" smooth="yes"/>
      <point x="120" y="179" type="line" smooth="yes"/>
      <point x="98" y="74"/>
      <point x="188" y="44"/>
      <point x="320" y="44" type="curve" smooth="yes"/>
      <point x="448" y="44"/>
      <point x="542" y="74"/>
      <point x="564" y="179" type="curve" smooth="yes"/>
      <point x="597" y="332" type="line" smooth="yes"/>
      <point x="614" y="416"/>
      <point x="534" y="459"/>
    </contour>
  </outline>
</glyph>
<glyph name="uni0438" format="1">
  <advance width="627" height="962"/>
  <unicode hex="0438"/>
  <outline>
    <contour>
      <point x="198" y="500" type="line"/>
      <point x="106" y="66" type="line"/>
      <point x="636" y="500" type="line"/>
      <point x="698" y="500" type="line"/>
      <point x="592" y="0" type="line"/>
      <point x="538" y="0" type="line"/>
      <point x="630" y="433" type="line"/>
      <point x="103" y="0" type="line"/>
      <point x="38" y="0" type="line"/>
      <point x="144" y="500" type="line"/>
    </contour>
  </outline>
</glyph>
<glyph name="uni044A" format="1">
  <advance width="742" height="962"/>
  <unicode hex="044A"/>
  <outline>
    <component base="uni044C" xOffset="102"/>
    <contour>
      <point x="106" y="500" type="line"/>
      <point x="274" y="500" type="line"/>
      <point x="263" y="449" type="line"/>
      <point x="238" y="449" type="line"/>
      <point x="96" y="451" type="line"/>
    </contour>
  </outline>
</glyph>
<glyph name="uni0454" format="1">
  <advance width="545" height="962"/>
  <unicode hex="0454"/>
  <outline>
    <contour>
      <point x="464" y="247" type="line"/>
      <point x="113" y="247" type="line"/>
      <point x="124" y="301" type="line"/>
      <point x="492" y="301" type="line"/>
    </contour>
    <contour>
      <point x="584" y="433" type="line"/>
      <point x="534" y="449"/>
      <point x="466" y="459"/>
      <point x="408" y="459" type="curve" smooth="yes"/>
      <point x="267" y="459"/>
      <point x="171" y="416"/>
      <point x="149" y="311" type="curve" smooth="yes"/>
      <point x="123" y="186" type="line" smooth="yes"/>
      <point x="97" y="64"/>
      <point x="181" y="41"/>
      <point x="325" y="41" type="curve" smooth="yes"/>
      <point x="423" y="41"/>
      <point x="514" y="56"/>
      <point x="511" y="55" type="curve"/>
      <point x="512" y="5" type="line"/>
      <point x="448" y="-6"/>
      <point x="376" y="-12"/>
      <point x="311" y="-11" type="curve" smooth="yes"/>
      <point x="138" y="-9"/>
      <point x="33" y="27"/>
      <point x="64" y="174" type="curve" smooth="yes"/>
      <point x="95" y="319" type="line" smooth="yes"/>
      <point x="123" y="452"/>
      <point x="229" y="510"/>
      <point x="415" y="510" type="curve" smooth="yes"/>
      <point x="482" y="510"/>
      <point x="551" y="497"/>
      <point x="610" y="478" type="curve"/>
    </contour>
  </outline>
</glyph>
<glyph name="uni045F" format="1">
  <advance width="628" height="962"/>
  <unicode hex="045F"/>
  <outline>
    <contour>
      <point x="694" y="500" type="line"/>
      <point x="588" y="0" type="line"/>
      <point x="339" y="0" type="line"/>
      <point x="313" y="-107" type="line"/>
      <point x="265" y="-107" type="line"/>
      <point x="285" y="0" type="line"/>
      <point x="35" y="0" type="line"/>
      <point x="141" y="500" type="line"/>
      <point x="196" y="500" type="line"/>
      <point x="102" y="57" type="line"/>
      <point x="546" y="57" type="line"/>
      <point x="640" y="500" type="line"/>
    </contour>
  </outline>
</glyph>
<glyph name="uni0462" format="1">
  <advance width="672" height="962"/>
  <unicode hex="0462"/>
  <outline>
    <component base="uni042C" xOffset="26.5"/>
    <contour>
      <point x="132" y="617" type="line"/>
      <point x="478" y="617" type="line"/>
      <point x="467" y="564" type="line"/>
      <point x="121" y="564" type="line"/>
    </contour>
  </outline>
</glyph>
<glyph name="uni0473" format="1">
  <advance width="613" height="962"/>
  <unicode hex="0473"/>
  <outline>
    <contour>
      <point x="621" y="175" type="line" smooth="yes"/>
      <point x="594" y="48"/>
      <point x="491" y="-10"/>
      <point x="309" y="-10" type="curve" smooth="yes"/>
      <point x="122" y="-10"/>
      <point x="40" y="57"/>
      <point x="65" y="175" type="curve" smooth="yes"/>
      <point x="97" y="325" type="line" smooth="yes"/>
      <point x="126" y="461"/>
      <point x="239" y="512"/>
      <point x="417" y="512" type="curve" smooth="yes"/>
      <point x="596" y="512"/>
      <point x="681" y="458"/>
      <point x="653" y="326" type="curve" smooth="yes"/>
    </contour>
    <contour>
      <point x="595" y="326" type="line" smooth="yes"/>
      <point x="618" y="432"/>
      <point x="540" y="462"/>
      <point x="409" y="462" type="curve" smooth="yes"/>
      <point x="277" y="462"/>
      <point x="176" y="430"/>
      <point x="154" y="325" type="curve" smooth="yes"/>
      <point x="120" y="165" type="line" smooth="yes"/>
      <point x="101" y="75"/>
      <point x="199" y="40"/>
      <point x="320" y="40" type="curve" smooth="yes"/>
      <point x="446" y="40"/>
      <point x="542" y="73"/>
      <point x="561" y="165" type="curve" smooth="yes"/>
    </contour>
    <contour>
      <point x="138" y="280" type="line"/>
      <point x="617" y="280" type="line"/>
      <point x="604" y="222" type="line"/>
      <point x="125" y="222" type="line"/>
    </contour>
  </outline>
</glyph>
<glyph name="uni0491" format="1">
  <advance width="456" height="962"/>
  <unicode hex="0491"/>
  <outline>
    <component base="uni0433"/>
    <contour>
      <point x="520" y="593" type="line"/>
      <point x="571" y="593" type="line"/>
      <point x="545" y="472" type="line"/>
      <point x="491" y="472" type="line"/>
      <point x="497" y="501" type="line"/>
    </contour>
  </outline>
</glyph>
<glyph name="uni0494" format="1">
  <advance width="624" height="962"/>
  <unicode hex="0494"/>
  <outline>
    <component base="Gamma"/>
    <contour>
      <point x="436" y="510" type="curve" smooth="yes"/>
      <point x="603" y="510"/>
      <point x="688" y="464"/>
      <point x="663" y="348" type="curve" smooth="yes"/>
      <point x="617" y="132" type="line" smooth="yes"/>
      <point x="600" y="54"/>
      <point x="543" y="9"/>
      <point x="429" y="-13" type="curve"/>
      <point x="421" y="30" type="line"/>
      <point x="492" y="45"/>
      <point x="552" y="79"/>
      <point x="563" y="132" type="curve" smooth="yes"/>
      <point x="608" y="345" type="line" smooth="yes"/>
      <point x="630" y="448"/>
      <point x="506" y="460"/>
      <point x="410" y="460" type="curve" smooth="yes"/>
      <point x="341" y="460"/>
      <point x="252" y="448"/>
      <point x="185" y="425" type="curve"/>
      <point x="194" y="467" type="line"/>
      <point x="257" y="493"/>
      <point x="361" y="510"/>
    </contour>
  </outline>
</glyph>
<glyph name="uni049B" format="1">
  <advance width="615" height="962"/>
  <unicode hex="049B"/>
  <outline>
    <contour>
      <point x="578" y="0" type="line"/>
      <point x="497" y="0" type="line"/>
      <point x="269" y="265" type="line"/>
      <point x="136" y="182" type="line"/>
      <point x="97" y="0" type="line"/>
      <point x="38" y="0" type="line"/>
      <point x="147" y="512" type="line"/>
      <point x="203" y="499" type="line"/>
      <point x="151" y="252" type="line"/>
      <point x="549" y="501" type="line"/>
      <point x="647" y="501" type="line"/>
      <point x="324" y="299" type="line"/>
    </contour>
    <contour>
      <point x="520" y="48" type="line"/>
      <point x="597" y="48" type="line"/>
      <point x="565" y="-104" type="line"/>
      <point x="516" y="-104" type="line"/>
      <point x="531" y="0" type="line"/>
      <point x="510" y="0" type="line"/>
    </contour>
  </outline>
</glyph>
<glyph name="uni049C" format="1">
  <advance width="762" height="962"/>
  <unicode hex="049C"/>
  <outline>
    <contour>
      <point x="740" y="0" type="line"/>
      <point x="660" y="0" type="line"/>
      <point x="387" y="358" type="line"/>
      <point x="301" y="358" type="line"/>
      <point x="286" y="285" type="line"/>
      <point x="233" y="285" type="line"/>
      <point x="248" y="358" type="line"/>
      <point x="171" y="358" type="line"/>
      <point x="95" y="0" type="line"/>
      <point x="40" y="0" type="line"/>
      <point x="189" y="700" type="line"/>
      <point x="244" y="700" type="line"/>
      <point x="183" y="413" type="line"/>
      <point x="260" y="413" type="line"/>
      <point x="275" y="484" type="line"/>
      <point x="328" y="484" type="line"/>
      <point x="313" y="413" type="line"/>
      <point x="390" y="413" type="line"/>
      <point x="735" y="700" type="line"/>
      <point x="811" y="700" type="line"/>
      <point x="439" y="393" type="line"/>
    </contour>
  </outline>
</glyph>
<glyph name="uni04A0" format="1">
  <advance width="728" height="962"/>
  <unicode hex="04A0"/>
  <outline>
    <component base="K" xOffset="70.5"/>
    <contour>
      <point x="150" y="700" type="line"/>
      <point x="292" y="700" type="line"/>
      <point x="281" y="648" type="line"/>
      <point x="249" y="648" type="line"/>
      <point x="139" y="651" type="line"/>
    </contour>
  </outline>
</glyph>
<glyph name="uni04A1" format="1">
  <advance width="710" height="962"/>
  <unicode hex="04A1"/>
  <outline>
    <contour>
      <point x="106" y="500" type="line"/>
      <point x="263" y="500" type="line"/>
      <point x="252" y="449" type="line"/>
      <point x="224" y="449" type="line"/>
      <point x="96" y="451" type="line"/>
    </contour>
    <contour>
      <point x="571" y="118" type="line" smooth="yes"/>
      <point x="612" y="71"/>
      <point x="653" y="48"/>
      <point x="692" y="48" type="curve" smooth="yes"/>
      <point x="698" y="48" type="line"/>
      <point x="688" y="0" type="line"/>
      <point x="685" y="0" type="line" smooth="yes"/>
      <point x="579" y="0"/>
      <point x="535" y="70"/>
      <point x="488" y="122" type="curve" smooth="yes"/>
      <point x="360" y="264" type="line"/>
      <point x="221" y="180" type="line"/>
      <point x="183" y="0" type="line"/>
      <point x="130" y="0" type="line"/>
      <point x="236" y="500" type="line"/>
      <point x="289" y="500" type="line"/>
      <point x="236" y="249" type="line"/>
      <point x="646" y="500" type="line"/>
      <point x="742" y="500" type="line"/>
      <point x="411" y="300" type="line"/>
    </contour>
  </outline>
</glyph>
<glyph name="uni04A4" format="1">
  <advance width="797" height="962"/>
  <unicode hex="04A4"/>
  <outline>
    <component base="H"/>
    <contour>
      <point x="801" y="700" type="line"/>
      <point x="933" y="700" type="line"/>
      <point x="922" y="651" type="line"/>
      <point x="815" y="648" type="line"/>
      <point x="790" y="648" type="line"/>
    </contour>
  </outline>
</glyph>
<glyph name="uni04AF" format="1">
  <advance width="619" height="962"/>
  <unicode hex="04AF"/>
  <outline>
    <contour>
      <point x="705" y="500" type="line"/>
      <point x="338" y="-2" type="line"/>
      <point x="293" y="-214" type="line"/>
      <point x="243" y="-190" type="line"/>
      <point x="283" y="0" type="line"/>
      <point x="127" y="500" type="line"/>
      <point x="189" y="500" type="line"/>
      <point x="323" y="58" type="line"/>
      <point x="640" y="500" type="line"/>
    </contour>
  </outline>
</glyph>
<glyph name="uni04CB" format="1">
  <advance width="712" height="962"/>
  <unicode hex="04CB"/>
  <outline>
    <component base="uni0427"/>
    <contour>
      <point x="576" y="57" type="line"/>
      <point x="674" y="57" type="line"/>
      <point x="662" y="0" type="line"/>
      <point x="626" y="0" type="line"/>
      <point x="593" y="-105" type="line"/>
      <point x="542" y="-105" type="line"/>
    </contour>
  </outline>
</glyph>
<glyph name="quoteright" format="1">
  <advance width="128" height="962"/>
  <unicode hex="2019"/>
  <outline>
    <contour>
      <point x="148" y="559" type="line"/>
      <point x="175" y="585"/>
      <point x="189" y="611"/>
      <point x="195" y="633" type="curve"/>
      <point x="181" y="637"/>
      <point x="171" y="650"/>
      <point x="175" y="666" type="curve" smooth="yes"/>
      <point x="179" y="685"/>
      <point x="198" y="700"/>
      <point x="215" y="700" type="curve" smooth="yes"/>
      <point x="234" y="700"/>
      <point x="247" y="686"/>
      <point x="243" y="666" type="curve" smooth="yes"/>
      <point x="230" y="605"/>
      <point x="188" y="564"/>
      <point x="163" y="546" type="curve"/>
    </contour>
  </outline>
</glyph>
<glyph name="y_lower_alt" format="1">
  <advance width="717" height="962"/>
  <unicode hex="9998"/>
  <outline>
    <contour>
      <point x="105" y="-209" type="line"/>
      <point x="333" y="48" type="line"/>
      <point x="120" y="500" type="line"/>
      <point x="189" y="500" type="line"/>
      <point x="377" y="99" type="line"/>
      <point x="734" y="500" type="line"/>
      <point x="801" y="500" type="line"/>
      <point x="173" y="-209" type="line"/>
    </contour>
  </outline>
</glyph>
<glyph name="commaturnedbelowcomb" format="1">
  <advance width="267" height="962"/>
  <outline>
    <contour>
      <point x="57" y="-196" type="line"/>
      <point x="84" y="-169"/>
      <point x="97" y="-142"/>
      <point x="104" y="-121" type="curve"/>
      <point x="89" y="-118"/>
      <point x="80" y="-104"/>
      <point x="84" y="-87" type="curve" smooth="yes"/>
      <point x="87" y="-69"/>
      <point x="105" y="-54"/>
      <point x="124" y="-54" type="curve" smooth="yes"/>
      <point x="142" y="-54"/>
      <point x="155" y="-67"/>
      <point x="151" y="-87" type="curve" smooth="yes"/>
      <point x="137" y="-150"/>
      <point x="94" y="-191"/>
      <point x="72" y="-208" type="curve"/>
    </contour>
  </outline>
</glyph>
<glyph name="t_t" format="1">
  <advance width="539" height="962"/>
  <outline>
    <component base="t" xOffset="224.25"/>
    <contour>
      <point x="125" y="132" type="line" smooth="yes"/>
      <point x="114" y="79"/>
      <point x="157" y="45"/>
      <point x="220" y="30" type="curve"/>
      <point x="195" y="-13" type="line"/>
      <point x="90" y="9"/>
      <point x="51" y="54"/>
      <point x="68" y="132" type="curve" smooth="yes"/>
      <point x="189" y="700" type="line"/>
      <point x="246" y="700" type="line"/>
      <point x="203" y="500" type="line"/>
      <point x="410" y="500" type="line"/>
      <point x="399" y="448" type="line"/>
      <point x="192" y="448" type="line"/>
    </contour>
  </outline>
</glyph>
